<?xml version="1.0" encoding="utf-8"?>
<!-- Generator: Adobe Illustrator 16.0.0, SVG Export Plug-In . SVG Version: 6.00 Build 0)  -->
<!DOCTYPE svg PUBLIC "-//W3C//DTD SVG 1.1//EN" "http://www.w3.org/Graphics/SVG/1.1/DTD/svg11.dtd">
<svg version="1.1" id="Layer_1" xmlns="http://www.w3.org/2000/svg" xmlns:xlink="http://www.w3.org/1999/xlink" x="0px" y="0px"
	 width="350px" height="350px" viewBox="0 0 350 350" enable-background="new 0 0 350 350" xml:space="preserve">
<path opacity="0.5" d="M294.069,175.003c0,65.757-53.308,119.067-119.072,119.067c-65.76,0-119.066-53.311-119.066-119.067
	c0-65.767,53.307-119.073,119.066-119.073C240.762,55.93,294.069,109.236,294.069,175.003z M121.09,119.92l-18.598,2.699
	l13.456,13.122l-3.175,18.52l16.629-8.743l16.637,8.743l-3.177-18.52l13.452-13.122l-18.598-2.699l-8.314-16.854L121.09,119.92z
	 M121.09,212.367l-18.598,2.699l13.456,13.123l-3.175,18.518l16.629-8.742l16.637,8.742l-3.177-18.518l13.452-13.123l-18.598-2.699
	l-8.314-16.854L121.09,212.367z M211.539,120.04l-18.599,2.696l13.457,13.116l-3.174,18.524l16.625-8.747l16.64,8.747l-3.175-18.524
	l13.449-13.116l-18.595-2.696l-8.319-16.855L211.539,120.04z M211.539,212.484l-18.599,2.699l13.457,13.117l-3.174,18.521
	l16.625-8.746l16.64,8.746l-3.175-18.521l13.449-13.117l-18.595-2.699l-8.319-16.855L211.539,212.484z"/>
</svg>
